<svg xmlns="http://www.w3.org/2000/svg" width="60" height="100" fill="#6a66ec" viewBox="0 0 98.9 100"><path d="M98.9 100c0-.2-1.4-10.8-1.4-11-4.5-11.4-11.6-5.9-19-11.4-5-3.8-7.8-1.1-10.8-7.9-.6-1.3-4.4-3.8-5.4-3.9l-.2-5.2c18.8-5.8 14-3.9 12.7-7.4-.2-.6-1.3-4.4-1.3-4.4s3.7 4.6 5.6 5.4C66.6 30.3 77.5-1.5 49.2 0 23.4 1.4 29.3 26.7 24.5 43.5c-1.1 3.9-4.9 10.7-4.9 10.7 1.9-.9 5.6-5.4 5.6-5.4s-1.4 4.2-1.6 4.7c-1.1 3-5.1 1.4 13 7.1l-.2 5.2c-1 .1-4.8 2.7-5.4 3.9-3.1 6.9-5.7 4-10.8 7.9-7 5.3-14.4.3-18.9 10.9.1.2-1.3 11.3-1.3 11.5h98.9z"/></svg>
