<svg xmlns="http://www.w3.org/2000/svg" width="60" height="100" fill="#6a66ec" viewBox="0 0 73.1 89.7"><path d="M42.2 52.5c-4.1 4-12.2 13.7-31 8.6-1.3-.3-2.6-.8-4-1.4 6.4 7.6 15.3 12.5 26.5 12.8v5.4H14v3h14.8L18 87.1l1.5 2.6 14.2-8.2v3h3v-3.2l14.4 8.3 1.5-2.6-10.7-6.2h13.4v-3H36.7v-5.5c16.2-.8 24.8-11.3 29.6-24.6-9.9-9-16.5-2.6-24.1 4.8z"/><path d="M71.6 3.4c-3.6-3-6.4 2.5-25.4 2.5C31 5.9 17.5-2.5 14.3.7c-3.4 3.4 7.5 16 9.1 29.2.8 6.4-4.7 11.8-11.1 11.1-3.8-.5-17.2-5-10.4 10.3v.1c11.9-2.9 24.3-2.8 36.8.3 7.4-7.1 16.4-17.1 28.6-6.9C71 32.6 72 18.7 73 6.8c.2-1.4-.3-2.6-1.4-3.4zm-38.4 53c1-.7 2-1.5 2.9-2.3-10.9-2.4-21.7-2.4-32.2-.1 6.7 6.6 23 6.7 29.3 2.4z"/></svg>
