<svg xmlns="http://www.w3.org/2000/svg" width="60" height="100" fill="#6a66ec" viewBox="0 0 94.3 93.8"><path d="M58.4 46.8c0 14.8-22.4 14.8-22.4 0s22.4-14.8 22.4 0"/><path d="m93.5 44.2-4.8-8.4c0-14.7 1.5-11.9-11-19.1C70.3 3.9 73.2 5.5 58.2 5.5c-12.8-7.4-9.7-7.2-22.3 0-14.8 0-11.9-1.5-19.2 11C3.6 23.9 5.4 21.1 5.4 36c-7.2 12.5-7.2 9.3 0 21.8 0 15.1-1.6 12.2 11.3 19.5 7.4 12.7 4.5 11 19.2 11 12.8 7.3 9.5 7.3 22.2 0 15.1 0 12.1 1.6 19.5-11.2 12.7-7.4 11-4.6 11-19.1 5.3-9.3 6.7-10.5 4.9-13.8zm-29.7 15C39 73.6 16.9 49.8 18.7 46.1c12.7-21.5 44.1-21.9 57 0 .9 1.8-5.3 9.1-11.9 13.1z"/></svg>
